<?xml version="1.0" standalone="no"?>
<!DOCTYPE svg PUBLIC "-//W3C//DTD SVG 20010904//EN"
 "http://www.w3.org/TR/2001/REC-SVG-20010904/DTD/svg10.dtd">
<svg version="1.0" xmlns="http://www.w3.org/2000/svg"
 width="680.000000pt" height="1024.000000pt" viewBox="0 0 680.000000 1024.000000"
 preserveAspectRatio="xMidYMid meet">

<g transform="translate(0.000000,1024.000000) scale(0.100000,-0.100000)"
fill="#000000" stroke="none">
<path d="M3620 10215 c-8 -2 -55 -8 -105 -15 -219 -28 -549 -141 -681 -233
-21 -15 -119 -81 -217 -146 -211 -140 -277 -194 -446 -362 -430 -428 -828
-1031 -1121 -1699 -142 -324 -272 -672 -256 -687 2 -2 16 31 31 74 295 826
642 1464 1066 1958 163 191 419 422 604 546 168 112 411 221 568 253 82 17
225 20 296 7 42 -8 48 -7 90 26 25 19 47 30 49 24 2 -7 20 -3 45 9 23 11 34
15 23 8 -45 -31 -116 -89 -116 -96 0 -4 26 -20 58 -36 136 -67 223 -149 321
-301 56 -87 132 -268 134 -320 1 -18 5 -31 9 -29 4 3 6 -15 5 -38 0 -24 4 -86
11 -138 6 -52 12 -143 13 -202 1 -90 4 -108 17 -108 13 0 13 -3 -2 -19 -12
-13 -19 -43 -23 -96 -5 -73 -4 -77 13 -71 16 6 15 3 -4 -16 -22 -24 -25 -44
-47 -296 -3 -29 -11 -65 -19 -80 -15 -31 -33 -99 -41 -157 -12 -84 -31 -166
-37 -160 -3 3 -9 -22 -13 -57 -3 -35 -8 -75 -11 -89 -3 -20 2 -31 21 -43 29
-19 25 -37 -5 -29 -17 5 -20 0 -20 -30 0 -27 5 -37 20 -42 31 -10 25 -35 -9
-35 -26 0 -29 -3 -35 -46 -3 -26 -6 -83 -7 -128 0 -45 -4 -101 -8 -126 l-7
-45 68 -65 c37 -36 68 -72 68 -80 0 -8 -11 1 -24 20 -24 35 -77 80 -94 80 -13
0 -20 -42 -11 -66 5 -11 8 -13 8 -5 2 30 48 -29 49 -62 l1 -32 -27 33 c-15 18
-30 32 -33 32 -4 0 -7 -49 -6 -110 0 -85 -4 -115 -17 -135 -9 -14 -12 -25 -7
-25 6 0 9 -22 7 -51 -3 -33 -1 -47 5 -38 6 10 9 1 9 -26 0 -22 4 -47 10 -55 5
-9 5 -19 -2 -27 -5 -7 -8 -24 -4 -37 6 -25 -14 -52 -29 -38 -5 4 -4 0 1 -8 12
-22 14 -41 2 -34 -6 4 -8 -1 -3 -15 5 -17 2 -21 -15 -21 -12 0 -19 -4 -16 -8
3 -5 -1 -9 -9 -9 -21 0 -115 248 -117 308 -1 39 22 127 38 140 8 6 23 9 34 6
17 -4 18 -2 9 14 -5 11 -7 24 -4 29 3 5 1 11 -4 14 -16 10 -53 -53 -71 -121
l-17 -66 -27 114 c-81 339 -104 624 -72 874 20 157 28 187 117 469 130 410
168 640 141 859 -22 175 -60 247 -129 247 -116 0 -329 -226 -449 -475 -48 -99
-91 -235 -96 -297 0 -12 -4 0 -7 27 l-6 50 -24 -88 c-13 -49 -29 -91 -37 -94
-7 -3 -61 35 -119 84 -111 92 -144 115 -130 93 5 -8 3 -11 -6 -8 -8 3 -13 11
-11 18 4 18 -18 70 -30 70 -15 0 -33 22 -47 58 -7 17 -17 32 -21 32 -5 0 -18
20 -30 44 -23 49 -45 60 -139 70 -29 3 -64 12 -77 21 -26 16 -48 20 -40 6 3
-5 -10 -12 -30 -15 -19 -4 -43 -15 -52 -24 -10 -9 -36 -26 -60 -36 -24 -11
-55 -30 -70 -44 -15 -13 -41 -30 -57 -37 -17 -7 -42 -24 -56 -37 -14 -12 -44
-35 -66 -50 -68 -45 -267 -235 -376 -360 -66 -75 -177 -224 -177 -237 0 -5 -7
-14 -15 -21 -20 -17 -117 -173 -167 -270 -51 -98 -148 -316 -182 -407 -28 -75
-57 -113 -185 -247 -89 -94 -69 -82 37 22 96 93 151 125 80 46 l-19 -22 39 11
c22 6 51 7 68 2 24 -7 26 -9 9 -13 -15 -4 -10 -8 20 -16 30 -9 41 -17 43 -35
l4 -24 -34 21 c-37 22 -96 20 -105 -5 -3 -9 12 -34 38 -61 l44 -47 -47 45
c-27 24 -48 39 -48 32 0 -7 -12 -12 -27 -12 l-28 -1 28 -15 c35 -19 30 -28 -8
-14 -15 6 -30 8 -33 5 -3 -3 5 -26 17 -53 20 -44 46 -163 31 -145 -3 4 -14 35
-24 68 -10 33 -27 70 -38 81 l-19 22 -25 -25 c-14 -14 -24 -36 -24 -52 0 -15
-3 -31 -7 -35 -4 -4 -9 -44 -10 -89 -2 -45 -8 -104 -12 -132 -6 -36 -7 -20 -3
56 5 115 -3 193 -19 168 -5 -8 -9 -43 -10 -79 -1 -36 -4 -53 -6 -37 -2 15 -8
27 -13 27 -10 0 -15 -22 -35 -158 -8 -57 -24 -133 -35 -169 -11 -36 -32 -125
-46 -197 -28 -143 -92 -408 -101 -416 -3 -3 -2 10 2 28 3 17 4 32 2 32 -3 0
-18 -53 -32 -117 -15 -65 -45 -183 -67 -263 -81 -298 -101 -379 -130 -525 -16
-82 -33 -168 -37 -190 l-9 -40 -1 40 c0 22 10 110 24 195 22 140 66 325 224
940 72 283 122 532 126 635 2 50 1 74 -1 55 -17 -127 -113 -531 -219 -915 -36
-132 -77 -294 -90 -360 -28 -137 -114 -663 -116 -703 l-1 -27 -9 25 c-5 17 -7
8 -4 -30 3 -30 1 -82 -4 -115 -7 -48 -9 -53 -11 -25 -3 44 -26 -132 -40 -315
-6 -77 -13 -144 -15 -150 -3 -5 -3 80 0 190 12 411 55 709 181 1239 29 126 52
232 49 234 -3 3 -5 2 -5 -2 0 -4 -27 -105 -59 -224 -128 -471 -181 -787 -202
-1202 -13 -266 -3 -459 41 -740 18 -113 33 -226 33 -252 1 -27 5 -48 8 -48 10
0 18 -81 10 -102 -5 -15 -12 0 -24 57 -10 43 -15 80 -12 83 3 3 5 -1 5 -8 0
-7 2 -11 5 -8 3 2 -1 18 -9 34 -38 76 -93 491 -102 764 -17 486 61 979 257
1627 27 91 48 167 46 170 -4 3 -86 -220 -106 -287 -13 -45 -60 -203 -77 -255
-6 -22 -15 -62 -19 -90 -4 -27 -9 -59 -12 -70 -6 -32 -40 -238 -62 -385 -49
-326 -67 -815 -41 -1155 72 -926 424 -1830 971 -2492 160 -194 417 -436 614
-580 348 -253 698 -401 1155 -489 90 -17 443 -19 570 -3 172 21 490 118 689
209 308 142 558 311 846 572 291 264 522 509 643 681 24 34 63 86 85 116 74
96 136 185 162 234 15 27 67 112 117 190 72 113 156 248 205 330 2 4 2 7 0 7
-4 0 -45 -62 -145 -220 -42 -66 -158 -222 -202 -270 -28 -31 -26 -28 10 30
l42 65 -45 -47 c-25 -27 -49 -48 -55 -48 -5 0 3 33 19 73 15 39 28 83 29 97 0
14 18 86 39 160 186 636 261 981 325 1495 33 263 46 456 55 820 l8 300 3 -250
c3 -172 6 -225 10 -170 l6 80 2 -95 c3 -163 -30 -578 -74 -920 -35 -276 -67
-467 -125 -760 -56 -277 -64 -360 -37 -386 14 -15 19 -13 59 22 49 45 150 244
242 479 138 352 245 762 282 1085 9 80 23 199 31 265 7 66 18 178 24 248 9
117 8 131 -9 165 -18 37 -55 171 -48 178 2 2 13 -30 25 -71 12 -41 27 -75 32
-75 17 0 11 76 -10 124 -26 57 -43 145 -70 355 -20 155 -44 304 -75 470 -8 42
-15 83 -14 91 0 13 36 -109 40 -135 0 -5 4 1 8 15 6 20 12 7 34 -72 16 -54 37
-121 48 -150 l19 -53 -5 48 c-3 27 -18 109 -35 183 -16 74 -30 149 -31 167 0
25 -2 28 -8 13 -12 -31 -86 300 -115 519 -28 208 -48 320 -57 331 -5 6 -6 20
-2 29 5 14 3 16 -7 10 -10 -6 -12 -1 -7 24 5 21 3 30 -4 26 -7 -5 -8 6 -5 32
5 30 4 34 -4 18 -8 -16 -9 -11 -5 20 4 31 3 37 -5 25 -9 -12 -10 -6 -6 25 4
31 3 35 -4 20 -9 -17 -10 -15 -6 10 3 17 -9 108 -25 204 -37 220 -37 278 1
101 15 -74 37 -171 48 -215 26 -102 68 -346 77 -449 15 -172 110 -704 123
-691 3 2 -1 48 -8 100 -6 53 -10 99 -7 101 3 3 12 -48 22 -113 9 -65 21 -143
26 -173 12 -65 60 -232 66 -226 4 4 -17 126 -58 330 -10 54 -19 103 -19 109 0
75 87 -375 121 -628 9 -60 14 -185 13 -312 0 -117 3 -213 7 -213 16 0 48 38
72 85 34 66 48 210 52 529 2 133 6 249 10 259 4 9 3 17 -3 17 -5 0 -12 -22
-16 -50 -7 -55 -20 -70 -35 -42 -20 37 -118 489 -108 498 3 3 8 -12 11 -33 4
-21 27 -121 52 -222 24 -101 44 -192 44 -202 0 -11 5 -19 10 -19 6 0 10 9 10
21 0 11 7 46 16 77 14 47 16 85 11 222 -13 330 -77 813 -132 995 -13 44 -37
132 -54 195 -90 348 -119 438 -208 660 -113 282 -282 610 -579 1121 -314 540
-557 818 -940 1074 -301 201 -599 315 -924 355 -76 9 -282 12 -320 5z m761
-129 c185 -66 356 -158 549 -295 322 -228 532 -466 792 -901 120 -200 330
-581 350 -635 7 -19 7 -19 -5 -1 -7 10 -27 36 -45 58 -17 22 -30 43 -28 47 3
4 -10 32 -29 62 -18 30 -88 146 -156 259 -67 113 -125 207 -129 210 -3 3 -24
34 -46 70 -21 36 -47 74 -56 84 -10 11 -18 25 -18 32 0 7 -3 14 -8 16 -4 2
-22 23 -40 48 -100 139 -357 420 -382 420 -5 0 -17 10 -27 23 -30 38 -127 121
-243 208 -165 122 -366 238 -524 300 -99 39 -69 36 45 -5z m-1361 -106 c-8 -5
-22 -9 -30 -9 -10 0 -8 3 5 9 27 12 43 12 25 0z m967 -852 c-3 -8 -6 -5 -6 6
-1 11 2 17 5 13 3 -3 4 -12 1 -19z m243 -15 c0 -5 -7 -17 -15 -27 -15 -20 -15
-20 -15 0 0 12 3 24 7 27 9 9 23 9 23 0z m-233 -35 c-3 -8 -6 -5 -6 6 -1 11 2
17 5 13 3 -3 4 -12 1 -19z m-387 -172 c0 -8 -4 -18 -10 -21 -5 -3 -10 3 -10
14 0 12 5 21 10 21 6 0 10 -6 10 -14z m1365 -166 c9 -16 13 -30 11 -30 -3 0
-12 14 -21 30 -9 17 -13 30 -11 30 3 0 12 -13 21 -30z m-1627 -32 c9 -9 6 -17
-15 -35 l-28 -24 35 21 c40 23 64 26 57 8 -2 -7 -11 -13 -19 -12 -7 1 -19 -9
-25 -22 -8 -17 -7 -21 2 -18 9 4 14 -9 17 -40 l3 -46 -45 0 c-55 0 -103 -27
-127 -72 -13 -25 -18 -29 -21 -15 -2 9 -8 14 -14 11 -17 -11 0 65 28 121 34
71 95 134 130 135 5 0 15 -5 22 -12z m1749 -204 c52 -107 93 -197 92 -199 -2
-2 -48 86 -101 196 -53 109 -94 199 -92 199 3 0 48 -88 101 -196z m-930 20
c-3 -3 -12 -4 -19 -1 -8 3 -5 6 6 6 11 1 17 -2 13 -5z m-87 -24 c-53 -18 -87
-20 -39 -2 13 5 31 12 39 15 8 3 24 5 35 6 11 0 -5 -9 -35 -19z m-1189 -97
c13 -16 12 -17 -3 -4 -10 7 -18 15 -18 17 0 8 8 3 21 -13z m226 -15 c-3 -7 -5
-2 -5 12 0 14 2 19 5 13 2 -7 2 -19 0 -25z m233 -83 c0 -14 -4 -25 -10 -25 -5
0 -10 11 -10 25 0 14 5 25 10 25 6 0 10 -11 10 -25z m-1650 12 c0 -2 -17 -19
-37 -38 l-38 -34 34 38 c33 34 41 42 41 34z m3519 -82 c0 -5 -6 1 -14 15 -8
14 -14 30 -14 35 0 6 6 -1 14 -15 8 -14 14 -29 14 -35z m-1920 -95 c0 -40 -2
-51 -9 -38 -15 24 -24 104 -15 125 7 16 9 15 15 -7 5 -14 8 -50 9 -80z m-1699
77 c0 -2 -10 -12 -22 -23 l-23 -19 19 23 c18 21 26 27 26 19z m3640 -32 c0 -5
-5 -3 -10 5 -5 8 -10 20 -10 25 0 6 5 3 10 -5 5 -8 10 -19 10 -25z m-3700 -38
c0 -2 -10 -12 -22 -23 l-23 -19 19 23 c18 21 26 27 26 19z m465 -77 c-16 -16
-34 -30 -39 -30 -10 1 53 60 63 60 3 0 -8 -13 -24 -30z m450 -58 c-133 -68
-200 -110 -191 -119 3 -3 17 4 33 14 15 11 39 25 53 32 21 10 22 9 6 -1 -11
-7 -49 -35 -85 -62 -50 -36 -59 -41 -37 -17 28 30 25 45 -4 19 -8 -7 9 14 37
47 115 135 147 155 243 155 l75 -1 -130 -67z m2489 -80 c48 -111 45 -116 -8
-12 -24 47 -42 89 -39 93 7 11 6 13 47 -81z m-1834 8 c7 11 11 8 19 -13 25
-65 10 -62 -56 11 -62 67 -72 93 -12 30 32 -34 42 -39 49 -28z m229 1 c-1 -17
-3 -20 -6 -8 -9 33 -19 17 -16 -25 l3 -43 -11 34 c-6 19 -8 51 -4 70 6 34 8
35 21 16 8 -10 13 -30 13 -44z m-1549 35 c0 -2 -12 -11 -27 -20 l-28 -17 24
20 c23 21 31 25 31 17z m1627 -38 c-3 -7 -5 -2 -5 12 0 14 2 19 5 13 2 -7 2
-19 0 -25z m57 5 c-4 -16 -15 -47 -25 -70 -16 -34 -21 -78 -26 -228 -3 -102
-9 -185 -13 -185 -4 0 -6 24 -6 53 0 28 -3 111 -8 182 -4 82 -4 147 3 175 9
41 10 37 6 -35 -3 -67 -3 -74 6 -40 10 44 60 175 66 175 2 0 0 -12 -3 -27z
m-860 -4 c20 -12 36 -23 36 -25 0 -5 -44 18 -70 35 -27 19 -2 11 34 -10z
m-884 -3 c0 -2 -48 -43 -107 -91 -60 -49 -216 -196 -348 -329 -255 -255 -264
-262 -62 -45 128 138 319 316 444 415 69 54 73 57 73 50z m295 -46 c-19 -36
-45 -141 -45 -181 0 -40 -16 -73 -24 -49 -21 67 -10 149 29 215 27 48 64 61
40 15z m517 3 c-6 -10 -37 -43 -68 -73 l-58 -55 50 55 c28 31 56 66 63 79 7
12 15 20 18 18 2 -3 0 -14 -5 -24z m158 -9 c0 -2 -9 0 -20 6 -11 6 -20 13 -20
16 0 2 9 0 20 -6 11 -6 20 -13 20 -16z m650 -129 c0 -19 -4 -35 -10 -35 -5 0
-10 16 -10 35 0 19 5 35 10 35 6 0 10 -16 10 -35z m-1810 -78 c0 -2 -12 -14
-27 -28 l-28 -24 24 28 c23 25 31 32 31 24z m491 -20 c-10 -9 -11 -8 -5 6 3
10 9 15 12 12 3 -3 0 -11 -7 -18z m29 -51 c0 -9 -30 -14 -35 -6 -4 6 3 10 14
10 12 0 21 -2 21 -4z m620 0 c0 -2 -8 -10 -17 -17 -16 -13 -17 -12 -4 4 13 16
21 21 21 13z m-1240 -19 c0 -2 -15 -16 -32 -33 l-33 -29 29 33 c28 30 36 37
36 29z m2475 -7 c3 -5 1 -10 -4 -10 -6 0 -11 5 -11 10 0 6 2 10 4 10 3 0 8 -4
11 -10z m-1892 -25 c-3 -9 -8 -14 -10 -11 -3 3 -2 9 2 15 9 16 15 13 8 -4z
m1354 -47 c-2 -13 -4 -5 -4 17 -1 22 1 32 4 23 2 -10 2 -28 0 -40z m-90 0 c-3
-8 -6 -5 -6 6 -1 11 2 17 5 13 3 -3 4 -12 1 -19z m-727 -23 c0 -3 -29 -37 -65
-76 -37 -40 -96 -110 -132 -158 -37 -47 -72 -92 -80 -99 -8 -7 -9 -7 -3 0 16
20 11 32 -7 17 -11 -9 -10 -3 6 19 12 17 25 32 28 32 3 0 0 -7 -7 -15 -7 -9
-10 -18 -8 -21 6 -5 48 48 48 61 0 3 -6 3 -12 -1 -7 -4 -10 -4 -6 0 3 4 10 8
15 8 12 -1 43 29 43 41 0 5 -8 3 -17 -4 -16 -13 -17 -12 -4 3 7 10 16 16 20
13 6 -3 87 80 156 163 20 22 25 26 25 17z m753 -97 c9 -57 22 -139 27 -183 6
-44 19 -118 30 -165 19 -87 26 -122 55 -290 40 -223 109 -479 211 -775 227
-657 258 -759 305 -984 85 -412 59 -869 -71 -1264 -48 -143 -149 -345 -231
-461 -64 -90 -223 -251 -300 -303 -146 -100 -331 -160 -458 -149 -285 26 -597
305 -720 641 -58 160 -75 277 -76 505 0 285 30 470 161 992 69 279 90 375 59
283 -16 -50 -19 -38 -4 21 7 27 15 41 19 34 10 -17 22 36 15 63 -4 15 -3 18 3
9 12 -17 23 34 16 69 -4 17 -3 20 4 10 13 -18 54 149 143 584 70 344 100 466
159 639 22 66 38 121 36 123 -4 4 -96 -241 -96 -257 0 -19 -50 -194 -60 -213
-6 -10 -8 -22 -5 -27 3 -4 1 -10 -4 -12 -5 -1 -23 -32 -41 -68 -37 -75 -100
-165 -139 -197 -44 -38 -40 -26 10 27 67 72 179 296 215 432 l13 53 -41 -48
c-31 -37 -46 -47 -65 -45 -13 2 -23 6 -23 11 0 4 -7 24 -16 45 -24 55 -44 133
-43 167 0 20 5 9 14 -31 16 -73 50 -144 69 -144 17 0 86 75 86 94 0 8 16 45
36 83 l37 68 -53 -50 c-53 -50 -53 -50 -22 -9 17 22 55 83 85 135 29 52 61
108 71 124 13 22 9 20 -16 -10 -60 -72 -147 -160 -152 -154 -3 3 2 18 10 34 9
17 15 31 15 33 -5 12 44 76 129 167 140 151 148 151 75 4 -50 -98 -88 -189
-82 -195 2 -2 32 58 67 133 108 237 248 410 408 503 48 27 94 50 102 50 12 0
20 -25 33 -102z m3074 65 c30 -39 108 -211 99 -220 -1 -2 -13 20 -26 47 -24
52 -50 66 -50 28 -1 -30 -60 96 -60 127 0 37 15 44 37 18z m-3497 -7 c0 -2 -8
-10 -17 -17 -16 -13 -17 -12 -4 4 13 16 21 21 21 13z m537 -18 c-3 -8 -6 -5
-6 6 -1 11 2 17 5 13 3 -3 4 -12 1 -19z m1630 -10 c-3 -8 -6 -5 -6 6 -1 11 2
17 5 13 3 -3 4 -12 1 -19z m-2207 -2 c0 -2 -8 -10 -17 -17 -16 -13 -17 -12 -4
4 13 16 21 21 21 13z m2217 -48 c-3 -8 -6 -5 -6 6 -1 11 2 17 5 13 3 -3 4 -12
1 -19z m-2277 -1 c0 -2 -19 -21 -42 -42 l-43 -40 40 43 c36 39 45 47 45 39z
m2298 -82 c0 -16 -2 -15 -8 5 -4 14 -8 34 -8 45 0 16 2 15 8 -5 4 -14 8 -34 8
-45z m-2215 32 c-5 -28 -113 -147 -133 -147 -10 0 -11 3 -3 11 6 6 9 18 6 26
-6 16 102 133 123 133 6 0 9 -10 7 -23z m-1713 -30 c0 -2 -10 -12 -22 -23
l-23 -19 19 23 c18 21 26 27 26 19z m1540 -20 c0 -2 -10 -12 -22 -23 l-23 -19
19 23 c18 21 26 27 26 19z m-200 -10 c0 -2 -15 -16 -32 -33 l-33 -29 29 33
c28 30 36 37 36 29z m2603 -42 c5 -28 4 -34 -3 -20 -8 19 -14 73 -6 64 2 -2 6
-22 9 -44z m-4023 18 c-19 -8 -44 -22 -55 -31 -19 -16 -19 -16 -5 2 15 19 66
46 85 45 6 0 -6 -7 -25 -16z m5424 -29 c3 -8 2 -12 -4 -9 -6 3 -10 10 -10 16
0 14 7 11 14 -7z m-4264 -123 c-5 -11 -15 -23 -21 -27 -6 -3 -3 5 6 20 20 30
30 35 15 7z m4285 -53 c8 -21 13 -38 11 -38 -7 0 -46 70 -46 83 0 18 18 -5 35
-45z m-310 -68 c12 -55 19 -103 15 -105 -4 -3 -15 35 -24 83 -10 48 -20 98
-23 112 -3 14 -2 22 2 18 4 -4 18 -53 30 -108z m-3971 35 c-29 -45 -49 -60
-37 -27 9 25 54 84 60 78 3 -3 -8 -26 -23 -51z m4093 -7 c-3 -8 -6 -5 -6 6 -1
11 2 17 5 13 3 -3 4 -12 1 -19z m-4057 -48 c-6 -11 -13 -20 -16 -20 -2 0 0 9
6 20 6 11 13 20 16 20 2 0 0 -9 -6 -20z m-1083 -72 c-3 -8 -6 -5 -6 6 -1 11 2
17 5 13 3 -3 4 -12 1 -19z m-80 -65 c-3 -10 -5 -4 -5 12 0 17 2 24 5 18 2 -7
2 -21 0 -30z m90 -10 c-3 -10 -5 -4 -5 12 0 17 2 24 5 18 2 -7 2 -21 0 -30z
m4710 -25 c-3 -8 -6 -5 -6 6 -1 11 2 17 5 13 3 -3 4 -12 1 -19z m10 -40 c-3
-8 -6 -5 -6 6 -1 11 2 17 5 13 3 -3 4 -12 1 -19z m-4967 -179 c-17 -271 -30
-406 -55 -579 -27 -184 -52 -316 -54 -284 -2 33 28 333 54 549 23 187 55 470
55 483 0 3 2 3 5 0 3 -3 1 -79 -5 -169z m-203 99 c-2 -13 -4 -3 -4 22 0 25 2
35 4 23 2 -13 2 -33 0 -45z m5511 -18 c0 -22 -1 -22 -8 5 -4 17 -8 39 -8 50 0
16 2 15 8 -5 4 -14 8 -36 8 -50z m425 -153 c34 -206 47 -322 46 -398 -1 -96
-13 -41 -33 151 -9 91 -26 226 -37 300 -32 228 -15 189 24 -53z m-395 -7 c-1
-23 -26 82 -26 110 0 14 6 -2 14 -35 7 -33 13 -67 12 -75z m-4308 71 c-20 -77
-51 -257 -70 -420 -11 -90 -23 -167 -26 -170 -11 -10 6 224 22 318 17 98 75
324 81 317 2 -2 -1 -22 -7 -45z m550 -6 c-7 -8 -20 -15 -28 -15 -13 0 -12 3 4
15 25 19 40 19 24 0z m-1393 -27 c-3 -7 -5 -2 -5 12 0 14 2 19 5 13 2 -7 2
-19 0 -25z m980 -40 c-3 -8 -6 -5 -6 6 -1 11 2 17 5 13 3 -3 4 -12 1 -19z
m-1016 -284 c-17 -137 -35 -292 -40 -344 -4 -52 -9 -75 -10 -50 -2 77 72 716
77 669 2 -15 -11 -138 -27 -275z m4876 274 c-3 -8 -6 -5 -6 6 -1 11 2 17 5 13
3 -3 4 -12 1 -19z m-5017 -250 c-18 -117 -34 -215 -37 -218 -7 -6 0 52 34 279
15 101 29 177 31 168 2 -9 -11 -112 -28 -229z m5027 200 c-3 -8 -6 -5 -6 6 -1
11 2 17 5 13 3 -3 4 -12 1 -19z m-4911 -194 c-14 -104 -32 -263 -41 -354 -9
-90 -18 -166 -22 -170 -13 -12 23 365 52 540 7 47 17 110 21 140 4 30 9 50 11
44 2 -6 -8 -96 -21 -200z m4921 144 c-3 -8 -6 -5 -6 6 -1 11 2 17 5 13 3 -3 4
-12 1 -19z m-5130 -20 c-3 -8 -6 -5 -6 6 -1 11 2 17 5 13 3 -3 4 -12 1 -19z
m4520 -20 c-3 -7 -5 -2 -5 12 0 14 2 19 5 13 2 -7 2 -19 0 -25z m-1659 -23
c-3 -3 -9 2 -12 12 -6 14 -5 15 5 6 7 -7 10 -15 7 -18z m2279 3 c-3 -8 -6 -5
-6 6 -1 11 2 17 5 13 3 -3 4 -12 1 -19z m-5150 -10 c-3 -8 -6 -5 -6 6 -1 11 2
17 5 13 3 -3 4 -12 1 -19z m4540 -30 c-3 -7 -5 -2 -5 12 0 14 2 19 5 13 2 -7
2 -19 0 -25z m-4568 -122 c-12 -69 -24 -124 -27 -122 -2 3 6 61 19 130 12 69
24 124 27 122 2 -3 -6 -61 -19 -130z m5188 112 c-3 -8 -6 -5 -6 6 -1 11 2 17
5 13 3 -3 4 -12 1 -19z m-610 -60 c-3 -7 -5 -2 -5 12 0 14 2 19 5 13 2 -7 2
-19 0 -25z m620 0 c-3 -7 -5 -2 -5 12 0 14 2 19 5 13 2 -7 2 -19 0 -25z
m-4090 -25 c-3 -10 -5 -2 -5 17 0 19 2 27 5 18 2 -10 2 -26 0 -35z m-396 10
c-12 -20 -14 -14 -5 12 4 9 9 14 11 11 3 -2 0 -13 -6 -23z m2099 -8 c0 -5 -5
-3 -10 5 -5 8 -10 20 -10 25 0 6 5 3 10 -5 5 -8 10 -19 10 -25z m2937 -17 c-3
-8 -6 -5 -6 6 -1 11 2 17 5 13 3 -3 4 -12 1 -19z m-1160 -25 c-3 -10 -5 -4 -5
12 0 17 2 24 5 18 2 -7 2 -21 0 -30z m-4587 -216 c-30 -184 -57 -301 -45 -197
10 95 70 424 73 407 2 -9 -11 -104 -28 -210z m1091 83 c-5 -86 -9 -105 -9 -60
-2 69 9 212 15 195 1 -6 -1 -66 -6 -135z m4666 98 c-3 -7 -5 -2 -5 12 0 14 2
19 5 13 2 -7 2 -19 0 -25z m-4126 -129 c-62 -256 -131 -448 -224 -623 -45 -85
-56 -99 -79 -102 -15 -1 -30 1 -32 5 -3 4 22 55 56 112 84 144 123 225 174
355 37 95 101 295 122 384 4 16 7 19 9 9 2 -8 -10 -71 -26 -140z m2966 94 c-3
-10 -5 -4 -5 12 0 17 2 24 5 18 2 -7 2 -21 0 -30z m1170 -15 c-3 -7 -5 -2 -5
12 0 14 2 19 5 13 2 -7 2 -19 0 -25z m-4195 -10 c-7 -7 -12 -8 -12 -2 0 14 12
26 19 19 2 -3 -1 -11 -7 -17z m4205 -40 c-3 -7 -5 -2 -5 12 0 14 2 19 5 13 2
-7 2 -19 0 -25z m-1170 -15 c-3 -10 -5 -4 -5 12 0 17 2 24 5 18 2 -7 2 -21 0
-30z m-4640 -5 c-3 -7 -5 -2 -5 12 0 14 2 19 5 13 2 -7 2 -19 0 -25z m-10 -60
c-3 -7 -5 -2 -5 12 0 14 2 19 5 13 2 -7 2 -19 0 -25z m4660 -25 c-3 -10 -5 -2
-5 17 0 19 2 27 5 18 2 -10 2 -26 0 -35z m10 -95 c-2 -13 -4 -5 -4 17 -1 22 1
32 4 23 2 -10 2 -28 0 -40z m-4940 10 c-3 -8 -6 -5 -6 6 -1 11 2 17 5 13 3 -3
4 -12 1 -19z m5530 -45 c-3 -10 -5 -4 -5 12 0 17 2 24 5 18 2 -7 2 -21 0 -30z
m700 15 c-3 -8 -6 -5 -6 6 -1 11 2 17 5 13 3 -3 4 -12 1 -19z m-7 -28 c0 -5
-2 -10 -4 -10 -3 0 -8 5 -11 10 -3 6 -1 10 4 10 6 0 11 -4 11 -10z m-5693
-122 c-2 -24 -4 -5 -4 42 0 47 2 66 4 43 2 -24 2 -62 0 -85z m4420 60 c-2 -13
-4 -3 -4 22 0 25 2 35 4 23 2 -13 2 -33 0 -45z m-708 -28 c0 -9 -4 -8 -9 5 -5
11 -9 27 -9 35 0 9 4 8 9 -5 5 -11 9 -27 9 -35z m1298 13 c-3 -10 -5 -4 -5 12
0 17 2 24 5 18 2 -7 2 -21 0 -30z m350 5 c-3 -8 -6 -5 -6 6 -1 11 2 17 5 13 3
-3 4 -12 1 -19z m-1598 -140 c2 26 18 10 31 -30 8 -24 17 -47 20 -53 12 -17
58 -148 65 -182 4 -18 19 -59 35 -91 34 -71 61 -175 90 -347 12 -71 24 -141
28 -155 5 -22 6 -23 12 -5 4 11 11 -45 15 -125 7 -147 -6 -411 -26 -524 -6
-32 -8 -61 -5 -64 3 -3 6 2 6 10 0 9 8 22 17 29 15 12 16 12 9 -6 -4 -11 -14
-47 -22 -81 -21 -93 -61 -205 -126 -359 -249 -587 -634 -1079 -1112 -1425
-282 -203 -645 -359 -812 -348 -97 6 -120 40 -103 151 14 88 19 101 32 88 16
-16 154 -14 243 5 439 90 937 479 1258 981 110 173 238 463 301 683 92 318
129 594 130 945 0 328 -27 556 -105 873 -16 68 -30 126 -29 130 0 4 11 -20 24
-53 13 -33 24 -54 24 -47z m668 40 c-2 -13 -4 -3 -4 22 0 25 2 35 4 23 2 -13
2 -33 0 -45z m590 10 c-2 -13 -4 -5 -4 17 -1 22 1 32 4 23 2 -10 2 -28 0 -40z
m-1628 -48 c0 -23 -15 7 -22 45 l-6 30 14 -30 c8 -16 14 -37 14 -45z m-3373
-208 c9 -57 14 -105 12 -108 -11 -10 -38 201 -36 278 l2 83 3 -75 c1 -41 10
-121 19 -178z m3623 153 c0 -13 -5 -8 -14 15 -18 46 -17 74 0 35 8 -16 14 -39
14 -50z m1388 8 c-3 -10 -5 -2 -5 17 0 19 2 27 5 18 2 -10 2 -26 0 -35z
m-1382 -191 c-2 -2 -9 16 -15 39 -6 24 -18 66 -26 93 -8 27 -14 59 -13 70 0
12 14 -28 29 -89 16 -60 27 -111 25 -113z m792 176 c-3 -8 -6 -5 -6 6 -1 11 2
17 5 13 3 -3 4 -12 1 -19z m-4462 -433 c9 -60 28 -154 41 -208 30 -114 25
-141 -6 -41 -40 130 -61 296 -65 504 l-3 195 8 -170 c5 -93 16 -219 25 -280z
m53 354 l-3 -44 -5 52 c-3 29 -1 48 3 44 5 -5 7 -28 5 -52z m3619 39 c-3 -8
-6 -5 -6 6 -1 11 2 17 5 13 3 -3 4 -12 1 -19z m-3668 -83 c2 -157 83 -530 120
-555 4 -3 11 -45 13 -93 6 -87 6 -88 -13 -71 -11 10 -17 24 -14 31 2 8 1 12
-4 9 -4 -3 -13 6 -20 20 -16 35 -13 44 5 14 14 -23 14 -24 9 -2 -17 73 -17 69
-1 42 20 -33 20 -20 0 30 -9 22 -20 38 -24 35 -5 -3 -11 3 -14 12 -7 25 -42
223 -55 308 -14 96 -22 325 -11 300 5 -11 9 -47 9 -80z m178 73 c-3 -8 -6 -5
-6 6 -1 11 2 17 5 13 3 -3 4 -12 1 -19z m4880 -40 c-2 -13 -4 -3 -4 22 0 25 2
35 4 23 2 -13 2 -33 0 -45z m-5128 -105 c1 -76 4 -154 8 -173 4 -29 3 -33 -8
-22 -21 20 -38 261 -23 319 13 50 21 7 23 -124z m3759 72 c0 -16 -2 -15 -8 5
-4 14 -8 34 -8 45 0 16 2 15 8 -5 4 -14 8 -34 8 -45z m-3521 23 c-3 -7 -5 -2
-5 12 0 14 2 19 5 13 2 -7 2 -19 0 -25z m-10 -50 c-3 -7 -5 -2 -5 12 0 14 2
19 5 13 2 -7 2 -19 0 -25z m-100 -20 c-3 -7 -5 -2 -5 12 0 14 2 19 5 13 2 -7
2 -19 0 -25z m3692 -328 c0 -14 -9 11 -20 55 -11 44 -29 108 -39 143 -23 75
-26 111 -5 67 14 -29 14 -28 10 30 -2 33 9 -14 25 -105 16 -91 29 -176 29
-190z m1318 288 c-2 -13 -4 -3 -4 22 0 25 2 35 4 23 2 -13 2 -33 0 -45z
m-4920 10 c-3 -7 -5 -2 -5 12 0 14 2 19 5 13 2 -7 2 -19 0 -25z m-10 -40 c-3
-8 -6 -5 -6 6 -1 11 2 17 5 13 3 -3 4 -12 1 -19z m408 -14 c13 -5 14 -8 3 -15
-19 -13 -28 -11 -28 6 0 17 2 18 25 9z m-459 -191 c-5 -6 -24 75 -30 132 -3
31 2 16 14 -39 11 -49 18 -91 16 -93z m1016 92 c-14 -30 -26 -31 -52 -5 -46
46 -41 2 5 -49 29 -31 32 -38 16 -34 -23 6 -61 61 -61 89 0 10 12 31 27 46
l27 28 25 -24 c21 -22 23 -28 13 -51z m145 53 c-3 -8 -6 -5 -6 6 -1 11 2 17 5
13 3 -3 4 -12 1 -19z m-1130 -70 c-2 -13 -4 -3 -4 22 0 25 2 35 4 23 2 -13 2
-33 0 -45z m4960 -5 c-2 -16 -4 -5 -4 22 0 28 2 40 4 28 2 -13 2 -35 0 -50z
m628 -39 c-18 -68 -57 -116 -77 -96 -8 8 -5 14 14 21 29 11 52 60 64 136 6 35
9 43 12 26 2 -14 -4 -53 -13 -87z m-4489 -10 c-14 -54 -25 -90 -25 -79 -1 23
40 187 46 182 2 -2 -8 -49 -21 -103z m3261 9 c-3 -10 -5 -4 -5 12 0 17 2 24 5
18 2 -7 2 -21 0 -30z m-4213 -18 c3 -8 1 -15 -4 -15 -6 0 -10 7 -10 15 0 8 2
15 4 15 2 0 6 -7 10 -15z m776 -45 c-6 -12 -14 -20 -17 -17 -2 3 1 14 8 26 17
26 24 19 9 -9z m-741 -25 c11 -19 17 -35 12 -35 -7 0 -15 14 -39 63 -2 4 -1 7
1 7 3 0 14 -16 26 -35z m-48 -90 c5 4 21 -3 35 -14 15 -11 30 -18 35 -16 4 3
23 -4 41 -15 33 -20 98 -28 98 -11 0 4 -11 6 -24 4 -15 -3 -25 1 -29 11 -7 18
-3 19 42 10 17 -4 29 -9 27 -13 -2 -3 17 -5 42 -4 46 2 46 1 12 -7 -30 -8 -27
-8 21 -5 55 3 159 40 159 56 0 4 8 10 18 13 10 4 45 22 77 41 53 33 77 43 62
29 -3 -3 -1 -18 4 -32 8 -22 5 -30 -23 -59 -47 -49 -186 -140 -259 -169 -109
-45 -190 -42 -254 8 -32 25 -87 131 -79 153 4 10 2 15 -7 13 -10 -2 -14 9 -15
42 l-1 45 4 -43 c2 -23 8 -40 14 -37z m919 -25 c-13 -44 -24 -79 -27 -76 -2 2
6 40 18 85 12 45 24 79 26 77 3 -2 -5 -41 -17 -86z m2563 59 c29 -19 38 -373
12 -472 -8 -32 -15 -76 -15 -98 0 -22 -4 -38 -9 -35 -5 3 -7 111 -4 248 5 275
5 253 -2 333 -3 33 -2 53 2 45 3 -8 10 -18 16 -21z m-2672 -17 c-14 -26 -67
-82 -78 -82 -8 0 75 96 85 99 1 1 -2 -7 -7 -17z m-1031 -226 c14 -27 47 -74
74 -103 26 -29 44 -53 38 -53 -17 0 -90 87 -118 141 -28 56 -64 155 -63 173 0
6 10 -16 22 -49 13 -33 34 -82 47 -109z m131 87 c13 -16 12 -17 -3 -4 -10 7
-18 15 -18 17 0 8 8 3 21 -13z m54 -23 c8 -13 -5 -13 -25 0 -13 8 -13 10 2 10
9 0 20 -4 23 -10z m912 -32 c-3 -8 -6 -5 -6 6 -1 11 2 17 5 13 3 -3 4 -12 1
-19z m2044 -188 c3 -3 11 -16 18 -30 l12 -25 -21 25 -22 25 6 -45 c6 -58 -8
-34 -29 48 -9 33 -27 88 -40 121 -38 94 -29 86 23 -19 26 -52 50 -97 53 -100z
m-2511 94 c-53 -53 -151 -104 -213 -111 -49 -6 -108 10 -127 33 -11 12 -7 12
23 -1 62 -26 126 -19 204 20 38 19 87 50 108 69 56 49 57 44 5 -10z m194 4
c-23 -39 -98 -129 -141 -170 -48 -44 -138 -98 -165 -98 -7 0 14 13 47 29 73
34 149 101 212 187 42 58 66 83 47 52z m-564 -49 c15 -28 5 -23 -15 7 -9 15
-12 23 -6 20 6 -4 16 -16 21 -27z m-224 -41 l29 -33 -32 29 c-18 17 -33 31
-33 33 0 8 8 1 36 -29z m1021 10 c-3 -8 -6 -5 -6 6 -1 11 2 17 5 13 3 -3 4
-12 1 -19z m4090 -215 c-2 -21 -4 -4 -4 37 0 41 2 58 4 38 2 -21 2 -55 0 -75z
m-4674 60 c-7 -2 -19 -2 -25 0 -7 3 -2 5 12 5 14 0 19 -2 13 -5z m20 -40 c-7
-2 -21 -2 -30 0 -10 3 -4 5 12 5 17 0 24 -2 18 -5z m3203 -69 c-4 -9 -9 -15
-11 -12 -3 3 -3 13 1 22 4 9 9 15 11 12 3 -3 3 -13 -1 -22z m-99 -46 c-3 -7
-5 -2 -5 12 0 14 2 19 5 13 2 -7 2 -19 0 -25z m1538 -143 c-4 -75 -9 -134 -12
-131 -3 3 -2 66 2 141 4 75 10 134 12 131 3 -3 2 -66 -2 -141z m-6038 93 c-3
-8 -6 -5 -6 6 -1 11 2 17 5 13 3 -3 4 -12 1 -19z m4490 -20 c-3 -7 -5 -2 -5
12 0 14 2 19 5 13 2 -7 2 -19 0 -25z m-342 -115 c15 -53 35 -116 46 -140 17
-41 40 -55 54 -33 19 31 25 -7 27 -172 l3 -183 38 90 c45 107 97 263 131 395
13 52 25 88 25 80 3 -52 -84 -330 -151 -488 -91 -213 -222 -424 -366 -587
-208 -235 -479 -400 -742 -449 -87 -17 -251 -20 -285 -6 -18 7 -15 13 35 61
30 30 123 101 205 158 299 208 426 330 563 539 122 187 234 494 267 733 4 25
10 50 13 56 6 8 82 39 103 42 4 1 19 -42 34 -96z m332 65 c-3 -7 -5 -2 -5 12
0 14 2 19 5 13 2 -7 2 -19 0 -25z m-3219 -18 c6 -16 7 -30 2 -30 -6 0 -30 52
-30 67 0 14 20 -12 28 -37z m4599 -227 c-3 -10 -5 -2 -5 17 0 19 2 27 5 18 2
-10 2 -26 0 -35z m-26 -172 c-12 -65 -21 -125 -21 -132 0 -7 -3 -9 -7 -6 -3 4
5 71 18 149 13 78 25 134 27 125 2 -9 -6 -70 -17 -136z m-3934 82 c-3 -10 -5
-4 -5 12 0 17 2 24 5 18 2 -7 2 -21 0 -30z m122 -419 c28 -58 71 -135 96 -170
25 -36 41 -63 35 -59 -19 12 -92 127 -135 214 -46 93 -91 227 -100 301 -3 25
8 -6 24 -68 16 -62 52 -160 80 -218z m2833 189 c-22 -65 -48 -147 -57 -183 -9
-35 -30 -92 -45 -125 -16 -34 -32 -75 -35 -91 -4 -16 -19 -56 -35 -89 -16 -33
-34 -71 -39 -85 -6 -14 -15 -32 -19 -40 -5 -8 -13 -24 -19 -35 -5 -11 -22 -42
-38 -70 -15 -27 -44 -79 -63 -115 -20 -36 -41 -70 -47 -77 -21 -24 -88 -114
-150 -203 -21 -30 -55 -73 -76 -95 -20 -22 -55 -62 -77 -90 -51 -65 -202 -210
-333 -320 -13 -11 -63 -47 -112 -79 -48 -33 -92 -65 -98 -73 -6 -7 -16 -13
-21 -13 -5 0 -34 -16 -64 -35 -30 -19 -59 -35 -64 -35 -6 0 -10 -4 -10 -10 0
-5 -7 -10 -15 -10 -8 0 -15 -4 -15 -10 0 -5 -5 -10 -11 -10 -6 0 -40 -14 -76
-30 -121 -56 -260 -110 -284 -110 -11 0 -19 -4 -19 -9 0 -5 -12 -11 -27 -14
-16 -2 -71 -17 -123 -31 -52 -15 -121 -32 -153 -38 -31 -6 -52 -15 -46 -19 26
-16 -206 -34 -437 -34 l-241 0 -56 57 c-72 74 -109 129 -141 208 -32 78 -33
126 -3 162 26 31 153 78 302 113 444 102 518 125 591 180 l32 24 -16 -49 c-12
-38 -13 -53 -4 -62 9 -9 16 -7 31 6 23 20 60 104 63 141 1 14 6 25 10 25 23 0
-26 -131 -104 -279 -39 -76 -48 -102 -46 -134 3 -35 8 -44 37 -61 28 -16 37
-17 53 -7 12 7 17 8 13 2 -12 -20 96 -12 193 14 260 70 588 247 862 465 134
107 337 305 457 445 223 259 456 659 585 1003 38 100 30 44 -10 -75z m-4855
95 c-3 -8 -6 -5 -6 6 -1 11 2 17 5 13 3 -3 4 -12 1 -19z m1002 -115 c10 -21
26 -56 35 -78 14 -32 14 -37 2 -25 -14 15 -68 140 -61 140 3 0 13 -17 24 -37z
m4858 -45 c-3 -8 -6 -5 -6 6 -1 11 2 17 5 13 3 -3 4 -12 1 -19z m-10 -65 c-3
-10 -5 -4 -5 12 0 17 2 24 5 18 2 -7 2 -21 0 -30z m-11 -80 c-11 -91 -83 -446
-121 -599 -33 -129 -146 -480 -166 -514 -14 -25 -11 29 6 95 9 33 36 123 60
200 24 77 56 185 71 240 55 210 125 499 136 566 15 84 23 91 14 12z m-439 -65
c-3 -8 -6 -5 -6 6 -1 11 2 17 5 13 3 -3 4 -12 1 -19z m-10 -90 c-3 -7 -5 -2
-5 12 0 14 2 19 5 13 2 -7 2 -19 0 -25z m-10 -75 c-3 -10 -5 -4 -5 12 0 17 2
24 5 18 2 -7 2 -21 0 -30z m-602 -48 c-9 -32 -13 -65 -10 -72 3 -9 0 -11 -7
-7 -8 5 -9 2 -4 -11 9 -25 -23 -122 -35 -104 -6 9 -9 10 -9 2 0 -6 -3 -20 -6
-30 -5 -15 -4 -16 6 -3 9 12 10 10 4 -10 -7 -28 -37 -94 -31 -70 3 8 7 26 11
40 l6 25 -11 -25 c-70 -152 -161 -330 -179 -350 l-22 -25 15 26 c88 149 182
369 246 578 34 110 51 134 26 36z m592 -17 c-3 -7 -5 -2 -5 12 0 14 2 19 5 13
2 -7 2 -19 0 -25z m-10 -70 c-3 -7 -5 -2 -5 12 0 14 2 19 5 13 2 -7 2 -19 0
-25z m-1314 -29 c-28 -49 -230 -249 -250 -249 -8 0 255 276 265 279 2 1 -5
-13 -15 -30z m1304 -21 c-3 -8 -6 -5 -6 6 -1 11 2 17 5 13 3 -3 4 -12 1 -19z
m-10 -70 c-3 -7 -5 -2 -5 12 0 14 2 19 5 13 2 -7 2 -19 0 -25z m-10 -50 c-3
-7 -5 -2 -5 12 0 14 2 19 5 13 2 -7 2 -19 0 -25z m-4518 -73 c0 -5 -6 -1 -14
9 -8 11 -15 27 -15 35 1 17 29 -26 29 -44z m4508 13 c-3 -7 -5 -2 -5 12 0 14
2 19 5 13 2 -7 2 -19 0 -25z m-2700 -35 c3 -7 19 -7 46 0 63 14 108 -8 137
-67 18 -38 23 -68 26 -154 3 -97 2 -100 -5 -37 -16 138 -82 235 -159 235 -20
0 -65 -13 -100 -30 -76 -36 -94 -37 -107 -7 -8 17 -24 25 -70 33 l-60 12 70 2
c83 2 119 7 123 19 4 12 95 6 99 -6z m2690 -15 c-3 -7 -5 -2 -5 12 0 14 2 19
5 13 2 -7 2 -19 0 -25z m-10 -50 c-3 -7 -5 -2 -5 12 0 14 2 19 5 13 2 -7 2
-19 0 -25z m-13 -62 c-3 -21 -8 -35 -11 -32 -2 2 -1 20 3 40 3 21 8 35 11 32
2 -2 1 -20 -3 -40z m-17 -78 c-3 -7 -5 -2 -5 12 0 14 2 19 5 13 2 -7 2 -19 0
-25z m-41 -172 c-41 -154 -177 -551 -243 -706 -73 -172 -196 -391 -309 -550
-63 -90 -177 -230 -186 -230 -4 0 28 46 72 101 144 180 272 384 365 582 100
213 244 617 302 845 15 62 29 108 31 103 2 -6 -13 -71 -32 -145z m-1940 85
c-7 -10 -66 -33 -66 -25 0 4 57 32 68 34 2 0 1 -4 -2 -9z m2187 -18 c-31 -88
-261 -528 -271 -519 -4 4 229 471 256 514 17 26 24 29 15 5z m-2090 -4 c-6 -6
-40 -21 -75 -34 -49 -18 -72 -21 -99 -15 -33 8 -33 8 14 9 26 1 63 10 84 21
20 10 40 17 45 14 4 -3 8 0 8 5 0 6 8 11 17 11 12 0 14 -3 6 -11z m-215 -41
c-2 -7 8 -14 22 -17 19 -3 12 -7 -30 -17 -30 -7 -63 -10 -74 -7 -11 3 -16 1
-12 -5 3 -5 -11 -12 -32 -16 -20 -3 -48 -9 -62 -12 -14 -3 13 10 60 28 47 19
94 39 105 46 25 14 26 14 23 0z m1262 2 c0 -5 -8 -18 -17 -28 -10 -9 -27 -31
-37 -47 -25 -38 -84 -103 -219 -237 -94 -94 -127 -121 -127 -103 0 4 172 186
275 291 28 28 66 70 85 93 37 44 40 46 40 31z m-3190 -63 c-12 -19 -22 -56
-24 -81 -1 -26 -8 -52 -15 -59 -11 -10 -12 -1 -9 45 3 40 13 69 32 98 33 50
46 47 16 -3z m1587 -4 c-3 -10 -5 -4 -5 12 0 17 2 24 5 18 2 -7 2 -21 0 -30z
m2350 -245 c-3 -8 -6 -5 -6 6 -1 11 2 17 5 13 3 -3 4 -12 1 -19z m-4152 -44
c9 -15 12 -23 6 -20 -11 7 -35 46 -28 46 3 0 12 -12 22 -26z m4328 -29 c-3 -9
-8 -14 -10 -11 -3 3 -2 9 2 15 9 16 15 13 8 -4z m-224 -74 c-12 -34 -24 -59
-26 -57 -3 2 5 32 18 65 12 34 24 59 26 57 3 -2 -5 -32 -18 -65z m204 34 c-3
-9 -8 -14 -10 -11 -3 3 -2 9 2 15 9 16 15 13 8 -4z m-1313 -20 c0 -2 -7 -8
-15 -15 -12 -10 -15 -10 -15 2 0 8 7 15 15 15 8 0 15 -1 15 -2z m-65 -55 c-3
-5 -12 -10 -18 -10 -7 0 -6 4 3 10 19 12 23 12 15 0z m1575 -94 c0 -2 -8 -10
-17 -17 -16 -13 -17 -12 -4 4 13 16 21 21 21 13z m-648 -83 c-116 -134 -275
-286 -387 -369 -147 -110 -195 -139 -410 -247 -140 -71 -191 -91 -290 -115
-128 -32 -224 -48 -213 -37 11 11 261 79 290 78 15 0 25 3 23 8 -3 4 5 5 17 1
13 -3 19 -1 15 5 -4 7 0 9 11 6 10 -2 35 7 56 22 21 14 66 39 102 55 215 97
471 285 679 497 82 84 151 153 153 153 2 0 -18 -26 -46 -57z m572 -15 c-117
-154 -243 -309 -310 -383 -108 -120 -429 -435 -509 -500 -58 -48 -54 -43 25
31 312 290 503 493 693 737 76 97 141 177 143 177 3 0 -16 -28 -42 -62z m-433
-93 c-26 -67 -166 -315 -178 -315 -2 0 -2 3 0 8 2 4 36 61 74 127 39 66 83
153 99 192 15 40 29 71 31 69 3 -2 -9 -39 -26 -81z m63 -27 c-36 -71 -247
-372 -281 -399 -9 -8 16 33 56 91 66 94 160 235 228 343 38 59 36 43 -3 -35z
m256 38 c0 -2 -8 -10 -17 -17 -16 -13 -17 -12 -4 4 13 16 21 21 21 13z m-541
-68 c-56 -81 -91 -116 -189 -192 -118 -93 -180 -136 -194 -136 -20 0 58 69
107 95 84 45 153 102 224 186 70 83 90 101 52 47z m-7 -117 c-42 -82 -78 -148
-80 -146 -6 6 144 295 153 295 2 0 -31 -67 -73 -149z m497 122 c-135 -164
-410 -454 -595 -628 l-159 -149 215 219 c190 193 358 372 500 528 40 44 70 67
39 30z m-4548 -30 c13 -16 12 -17 -3 -4 -10 7 -18 15 -18 17 0 8 8 3 21 -13z
m3419 -47 c-32 -47 -55 -66 -26 -21 9 14 23 36 32 50 9 14 19 24 21 22 2 -3
-10 -25 -27 -51z m-3359 -33 c23 -32 36 -53 28 -46 -17 14 -83 103 -76 103 3
0 24 -26 48 -57z m1962 0 c-7 -2 -21 -2 -30 0 -10 3 -4 5 12 5 17 0 24 -2 18
-5z m94 -49 c-3 -3 -12 -4 -19 -1 -8 3 -5 6 6 6 11 1 17 -2 13 -5z m-44 -11
c-7 -2 -19 -2 -25 0 -7 3 -2 5 12 5 14 0 19 -2 13 -5z m-1883 -103 c40 -48 46
-58 16 -27 -24 26 -59 67 -77 90 -47 61 -12 24 61 -63z m1800 89 c-77 -15
-282 -39 -337 -39 -42 0 -53 -3 -53 -16 0 -13 -3 -14 -13 -5 -8 6 -76 15 -153
19 l-139 9 193 2 c168 1 468 24 481 37 2 2 18 4 35 3 26 -1 24 -3 -14 -10z
m1911 -108 c-28 -56 -53 -101 -56 -101 -3 0 19 47 47 105 29 57 54 103 56 101
2 -2 -20 -49 -47 -105z m-587 54 c-9 -14 -18 -25 -21 -25 -5 0 5 18 20 38 17
22 18 13 1 -13z m-24 -39 c0 -2 -8 -10 -17 -17 -16 -13 -17 -12 -4 4 13 16 21
21 21 13z m800 -16 c-6 -11 -13 -20 -16 -20 -2 0 0 9 6 20 6 11 13 20 16 20 2
0 0 -9 -6 -20z m-3975 -61 c-10 -15 -25 2 -31 36 l-5 29 21 -27 c12 -15 18
-32 15 -38z m156 -16 c13 -16 12 -17 -3 -4 -17 13 -22 21 -14 21 2 0 10 -8 17
-17z m3159 3 c0 -3 -38 -26 -85 -51 -47 -26 -85 -50 -85 -55 0 -9 -56 -31 -63
-24 -2 3 -51 -9 -107 -26 -150 -44 -145 -36 8 15 74 24 175 67 225 94 90 48
107 55 107 47z m-2540 -209 c38 -33 40 -36 12 -21 -18 10 -76 61 -130 112
l-97 94 85 -74 c47 -40 105 -90 130 -111z m2940 153 c-6 -11 -13 -20 -16 -20
-2 0 0 9 6 20 6 11 13 20 16 20 2 0 0 -9 -6 -20z m-30 -49 c-5 -11 -15 -23
-21 -27 -6 -3 -3 5 6 20 20 30 30 35 15 7z m-855 -91 c-11 -5 -27 -9 -35 -9
-9 0 -8 4 5 9 11 5 27 9 35 9 9 0 8 -4 -5 -9z m-1080 -25 l70 -13 -80 -1 c-63
0 -88 4 -115 20 l-35 20 45 -6 c25 -3 77 -12 115 -20z m1335 1 c0 -2 -8 -10
-17 -17 -16 -13 -17 -12 -4 4 13 16 21 21 21 13z m-1210 -20 c0 -2 -13 -6 -29
-8 -17 -2 -28 -1 -25 4 5 8 54 12 54 4z m790 -5 c0 -12 -35 -20 -121 -25 -64
-5 -68 -4 -24 4 28 4 68 13 90 18 53 13 55 13 55 3z m-850 -26 l65 -14 -66 3
c-37 2 -75 8 -85 14 -18 11 -18 11 1 11 11 0 49 -6 85 -14z m1820 -48 c0 -2
-12 -14 -27 -28 l-28 -24 24 28 c23 25 31 32 31 24z m-2449 -38 c16 -11 29
-25 29 -30 0 -11 -75 25 -85 41 -11 18 26 11 56 -11z m114 -172 c14 -12 -34 7
-72 29 -18 11 -33 27 -33 37 0 15 9 11 48 -19 26 -21 52 -42 57 -47z m2255 48
c-13 -14 -57 -48 -99 -77 -42 -28 -79 -56 -83 -62 -4 -6 -9 -8 -12 -5 -8 8 49
60 134 122 77 57 101 65 60 22z m-2775 -165 c386 -232 701 -356 1047 -410
l123 -20 -110 4 c-398 15 -916 226 -1255 512 -100 84 -124 123 -39 62 35 -25
141 -91 234 -148z m1490 171 c-20 -18 -148 -80 -156 -76 -4 3 -10 1 -13 -4 -3
-5 -16 -7 -28 -3 -14 3 -19 2 -14 -6 7 -12 -5 -16 -33 -13 -7 2 -10 -2 -6 -9
5 -8 2 -10 -11 -6 -17 5 -47 0 -187 -30 -15 -4 -30 -11 -33 -15 -7 -12 -51
-12 -58 0 -9 14 63 39 219 75 83 18 188 47 235 64 47 16 87 30 90 31 2 0 0 -3
-5 -8z m-1186 -20 c10 -6 10 -10 1 -16 -7 -4 -19 0 -28 9 -14 13 -14 16 -2 16
8 0 21 -4 29 -9z m648 -227 c49 -15 80 -29 71 -31 -30 -7 -129 16 -182 42
l-51 25 37 -4 c21 -3 77 -17 125 -32z m1286 29 c8 -7 -11 -33 -23 -33 -7 0 -7
18 -1 38 2 5 18 2 24 -5z m-28 -62 c-13 -11 -213 -91 -229 -91 -9 1 219 98
234 99 2 1 0 -3 -5 -8z m-1105 -31 c11 -7 5 -10 -22 -10 -21 0 -38 5 -38 10 0
13 40 13 60 0z m1156 -45 c-11 -8 -25 -15 -30 -15 -6 1 0 7 14 15 32 19 40 18
16 0z"/>
<path d="M1834 4905 c-29 -18 -56 -39 -60 -47 -5 -7 5 -5 21 6 81 53 105 69
105 72 0 9 -19 1 -66 -31z"/>
<path d="M1306 4827 c3 -10 9 -15 12 -12 3 3 0 11 -7 18 -10 9 -11 8 -5 -6z"/>
<path d="M1750 4821 c-8 -4 -49 -24 -90 -45 -111 -55 -184 -122 -93 -84 15 6
36 13 46 15 29 5 77 33 77 44 0 5 23 24 50 41 28 17 50 33 50 34 0 6 -24 3
-40 -5z"/>
<path d="M1340 4810 c0 -5 7 -10 16 -10 8 0 12 5 9 10 -3 6 -10 10 -16 10 -5
0 -9 -4 -9 -10z"/>
<path d="M4767 4878 c-2 -7 -1 -22 4 -33 6 -16 8 -14 8 13 1 33 -4 41 -12 20z"/>
<path d="M4896 2895 c-9 -26 -7 -32 5 -12 6 10 9 21 6 23 -2 3 -7 -2 -11 -11z"/>
<path d="M3310 2320 c0 -5 5 -10 10 -10 6 0 10 5 10 10 0 6 -4 10 -10 10 -5 0
-10 -4 -10 -10z"/>
<path d="M591 6124 c0 -11 3 -14 6 -6 3 7 2 16 -1 19 -3 4 -6 -2 -5 -13z"/>
<path d="M581 6084 c0 -11 3 -14 6 -6 3 7 2 16 -1 19 -3 4 -6 -2 -5 -13z"/>
<path d="M571 6044 c0 -11 3 -14 6 -6 3 7 2 16 -1 19 -3 4 -6 -2 -5 -13z"/>
<path d="M551 5964 c0 -11 3 -14 6 -6 3 7 2 16 -1 19 -3 4 -6 -2 -5 -13z"/>
<path d="M541 5914 c0 -11 3 -14 6 -6 3 7 2 16 -1 19 -3 4 -6 -2 -5 -13z"/>
<path d="M6735 4743 c-14 -94 -28 -150 -44 -178 -13 -22 -20 -65 -25 -145 -16
-255 -71 -607 -147 -943 -16 -71 -26 -133 -23 -138 3 -5 0 -9 -5 -9 -6 0 -11
-9 -11 -19 0 -35 -108 -343 -176 -506 -37 -88 -101 -225 -142 -305 -40 -80
-64 -136 -53 -125 17 18 171 314 171 331 0 3 13 34 29 68 16 34 48 114 71 177
24 63 46 119 50 124 10 13 73 201 101 295 101 349 183 836 204 1200 6 105 12
160 21 193 3 9 1 17 -5 17 -5 0 -13 -17 -16 -37z"/>
<path d="M182 4560 c0 -19 2 -27 5 -17 2 9 2 25 0 35 -3 9 -5 1 -5 -18z"/>
</g>
</svg>
